ffmpeg started on 2016-12-12 at 08:36:34
Report written to "Output/theora/results/ffmpeg/sintel10000k.log"
Command line:
Tools/ffmpeg/ffmpeg -benchmark -y -i Input/y4m/sintel.y4m -c:v libtheora -b:v 10000k -an Output/theora/encoded/sintel10000k.mkv
ffmpeg version N-82227-gdb23fde Copyright (c) 2000-2016 the FFmpeg developers
  built with gcc 5.4.0 (Ubuntu 5.4.0-6ubuntu1~16.04.2) 20160609
  configuration: --prefix=/home/jaroslav/ffmpeg_build --pkg-config-flags=--static --extra-cflags=-I/home/jaroslav/ffmpeg_build/include --extra-ldflags=-L/home/jaroslav/ffmpeg_build/lib --bindir=/home/jaroslav/bin --enable-gpl --enable-libass --enable-libfdk-aac --enable-libfreetype --enable-libmp3lame --enable-libopus --enable-libtheora --enable-libvorbis --enable-libvpx --enable-libx264 --enable-libx265 --enable-nvenc --enable-libmfx --enable-libxvid --enable-libgsm --enable-libopencore-amrnb --enable-version3 --enable-nonfree
  libavutil      55. 35.100 / 55. 35.100
  libavcodec     57. 66.101 / 57. 66.101
  libavformat    57. 57.100 / 57. 57.100
  libavdevice    57.  2.100 / 57.  2.100
  libavfilter     6. 66.100 /  6. 66.100
  libswscale      4.  3.100 /  4.  3.100
  libswresample   2.  4.100 /  2.  4.100
  libpostproc    54.  2.100 / 54.  2.100
Input #0, yuv4mpegpipe, from 'Input/y4m/sintel.y4m':
  Duration: 00:00:20.83, start: 0.000000, bitrate: 2057307 kb/s
    Stream #0:0: Video: rawvideo (I420 / 0x30323449), yuv420p(progressive), 4096x1744, SAR 1:1 DAR 256:109, 24 fps, 24 tbr, 24 tbn, 24 tbc
Output #0, matroska, to 'Output/theora/encoded/sintel10000k.mkv':
  Metadata:
    encoder         : Lavf57.57.100
    Stream #0:0: Video: theora (libtheora) (theo / 0x6F656874), yuv420p, 4096x1744 [SAR 1:1 DAR 256:109], q=2-31, 10000 kb/s, 24 fps, 1k tbn, 24 tbc
    Metadata:
      encoder         : Lavc57.66.101 libtheora
Stream mapping:
  Stream #0:0 -> #0:0 (rawvideo (native) -> theora (libtheora))
Press [q] to stop, [?] for help
frame=    3 fps=0.0 q=-0.0 size=       4kB time=00:00:00.08 bitrate= 380.5kbits/s speed=0.126x    frame=    5 fps=3.8 q=-0.0 size=       4kB time=00:00:00.16 bitrate= 190.2kbits/s speed=0.129x    frame=    7 fps=3.6 q=-0.0 size=       4kB time=00:00:00.25 bitrate= 127.3kbits/s speed=0.129x    frame=    9 fps=3.5 q=-0.0 size=       4kB time=00:00:00.33 bitrate=  95.7kbits/s speed=0.13x    frame=   11 fps=3.4 q=-0.0 size=       4kB time=00:00:00.41 bitrate=  76.5kbits/s speed=0.131x    frame=   13 fps=3.2 q=-0.0 size=     666kB time=00:00:00.50 bitrate=10889.5kbits/s speed=0.124x    frame=   16 fps=3.3 q=-0.0 size=     666kB time=00:00:00.62 bitrate=8715.1kbits/s speed=0.13x    frame=   17 fps=2.0 q=-0.0 size=     666kB time=00:00:00.66 bitrate=8167.1kbits/s speed=0.0805x    frame=   18 fps=1.5 q=-0.0 size=     666kB time=00:00:00.70 bitrate=7694.8kbits/s speed=0.0609x    frame=   19 fps=1.3 q=-0.0 size=     666kB time=00:00:00.75 bitrate=7264.5kbits/s speed=0.0511x    frame=   21 fps=1.4 q=-0.0 size=     666kB time=00:00:00.83 bitrate=6541.5kbits/s speed=0.0544x    frame=   23 fps=1.4 q=-0.0 size=     666kB time=00:00:00.91 bitrate=5943.0kbits/s speed=0.0576x    frame=   25 fps=1.5 q=-0.0 size=    1292kB time=00:00:01.00 bitrate=10571.3kbits/s speed=0.0604x    frame=   28 fps=1.6 q=-0.0 size=    1292kB time=00:00:01.12 bitrate=9397.8kbits/s speed=0.0649x    frame=   30 fps=1.7 q=-0.0 size=    1292kB time=00:00:01.20 bitrate=8752.6kbits/s speed=0.0673x    frame=   32 fps=1.7 q=-0.0 size=    1292kB time=00:00:01.29 bitrate=8184.0kbits/s speed=0.0695x    frame=   34 fps=1.8 q=-0.0 size=    1292kB time=00:00:01.37 bitrate=7690.3kbits/s speed=0.0715x    frame=   36 fps=1.8 q=-0.0 size=    1292kB time=00:00:01.45 bitrate=7252.9kbits/s speed=0.0734x    frame=   39 fps=1.9 q=-0.0 size=    1846kB time=00:00:01.58 bitrate=9548.5kbits/s speed=0.0767x    frame=   41 fps=1.9 q=-0.0 size=    1846kB time=00:00:01.66 bitrate=9067.6kbits/s speed=0.0783x    frame=   43 fps=2.0 q=-0.0 size=    1846kB time=00:00:01.75 bitrate=8637.8kbits/s speed=0.0799x    frame=   45 fps=2.0 q=-0.0 size=    1846kB time=00:00:01.83 bitrate=8246.9kbits/s speed=0.0813x    frame=   47 fps=2.0 q=-0.0 size=    1846kB time=00:00:01.91 bitrate=7885.7kbits/s speed=0.0828x    frame=   49 fps=2.1 q=-0.0 size=    2421kB time=00:00:02.00 bitrate=9912.2kbits/s speed=0.0841x    frame=   52 fps=2.1 q=-0.0 size=    2421kB time=00:00:02.12 bitrate=9329.4kbits/s speed=0.0855x    frame=   54 fps=2.1 q=-0.0 size=    2421kB time=00:00:02.20 bitrate=8978.9kbits/s speed=0.0866x    frame=   56 fps=2.1 q=-0.0 size=    2421kB time=00:00:02.29 bitrate=8650.0kbits/s speed=0.0876x    frame=   58 fps=2.2 q=-0.0 size=    2421kB time=00:00:02.37 bitrate=8347.8kbits/s speed=0.0887x    frame=   60 fps=2.2 q=-0.0 size=    2421kB time=00:00:02.45 bitrate=8066.0kbits/s speed=0.0896x    frame=   63 fps=2.2 q=-0.0 size=    3125kB time=00:00:02.58 bitrate=9906.4kbits/s speed=0.0916x    frame=   65 fps=2.3 q=-0.0 size=    3125kB time=00:00:02.66 bitrate=9594.5kbits/s speed=0.0924x    frame=   67 fps=2.3 q=-0.0 size=    3432kB time=00:00:02.75 bitrate=10219.9kbits/s speed=0.0929x    frame=   69 fps=2.3 q=-0.0 size=    3470kB time=00:00:02.83 bitrate=10030.8kbits/s speed=0.0933x    frame=   71 fps=2.3 q=-0.0 size=    3587kB time=00:00:02.91 bitrate=10071.3kbits/s speed=0.0939x    frame=   73 fps=2.3 q=-0.0 size=    3669kB time=00:00:03.00 bitrate=10016.4kbits/s speed=0.0943x    frame=   75 fps=2.3 q=-0.0 size=    3745kB time=00:00:03.08 bitrate=9947.0kbits/s speed=0.0949x    frame=   77 fps=2.3 q=-0.0 size=    3815kB time=00:00:03.16 bitrate=9865.4kbits/s speed=0.0952x    frame=   79 fps=2.3 q=-0.0 size=    3887kB time=00:00:03.25 bitrate=9795.6kbits/s speed=0.0955x    frame=   81 fps=2.3 q=-0.0 size=    3967kB time=00:00:03.33 bitrate=9747.3kbits/s speed=0.0956x    frame=   83 fps=2.3 q=-0.0 size=    4052kB time=00:00:03.41 bitrate=9710.4kbits/s speed=0.0959x    frame=   85 fps=2.3 q=-0.0 size=    4145kB time=00:00:03.50 bitrate=9697.9kbits/s speed=0.0962x    frame=   87 fps=2.3 q=-0.0 size=    4229kB time=00:00:03.58 bitrate=9666.0kbits/s speed=0.0964x    frame=   89 fps=2.3 q=-0.0 size=    4319kB time=00:00:03.66 bitrate=9645.4kbits/s speed=0.0966x    frame=   91 fps=2.3 q=-0.0 size=    4418kB time=00:00:03.75 bitrate=9647.6kbits/s speed=0.0968x    frame=   93 fps=2.4 q=-0.0 size=    4524kB time=00:00:03.83 bitrate=9666.4kbits/s speed=0.097x    frame=   95 fps=2.4 q=-0.0 size=    4624kB time=00:00:03.91 bitrate=9669.0kbits/s speed=0.0975x    frame=   97 fps=2.4 q=-0.0 size=    4739kB time=00:00:04.00 bitrate=9702.8kbits/s speed=0.0975x    frame=   99 fps=2.4 q=-0.0 size=    4739kB time=00:00:04.08 bitrate=9505.7kbits/s speed=0.0979x    frame=  101 fps=2.4 q=-0.0 size=    4949kB time=00:00:04.16 bitrate=9727.5kbits/s speed=0.0984x    frame=  103 fps=2.4 q=-0.0 size=    4949kB time=00:00:04.25 bitrate=9537.6kbits/s speed=0.0986x    frame=  105 fps=2.4 q=-0.0 size=    4949kB time=00:00:04.33 bitrate=9354.9kbits/s speed=0.0991x    frame=  107 fps=2.4 q=-0.0 size=    4949kB time=00:00:04.41 bitrate=9177.1kbits/s speed=0.0996x    frame=  109 fps=2.4 q=-0.0 size=    4949kB time=00:00:04.50 bitrate=9007.9kbits/s speed= 0.1x    frame=  111 fps=2.4 q=-0.0 size=    4949kB time=00:00:04.58 bitrate=8844.8kbits/s speed= 0.1x    frame=  113 fps=2.4 q=-0.0 size=    5531kB time=00:00:04.66 bitrate=9707.0kbits/s speed=0.101x    frame=  115 fps=2.4 q=-0.0 size=    5531kB time=00:00:04.75 bitrate=9537.4kbits/s speed=0.101x    frame=  117 fps=2.4 q=-0.0 size=    5732kB time=00:00:04.83 bitrate=9714.1kbits/s speed=0.101x    frame=  119 fps=2.5 q=-0.0 size=    5732kB time=00:00:04.91 bitrate=9548.2kbits/s speed=0.102x    frame=  121 fps=2.5 q=-0.0 size=    5732kB time=00:00:05.00 bitrate=9389.7kbits/s speed=0.102x    frame=  123 fps=2.5 q=-0.0 size=    5732kB time=00:00:05.08 bitrate=9236.4kbits/s speed=0.102x    frame=  125 fps=2.5 q=-0.0 size=    6294kB time=00:00:05.16 bitrate=9976.2kbits/s speed=0.103x    frame=  127 fps=2.5 q=-0.0 size=    6457kB time=00:00:05.25 bitrate=10074.0kbits/s speed=0.103x    frame=  129 fps=2.5 q=-0.0 size=    6618kB time=00:00:05.33 bitrate=10164.1kbits/s speed=0.103x    frame=  131 fps=2.5 q=-0.0 size=    6787kB time=00:00:05.41 bitrate=10262.3kbits/s speed=0.102x    frame=  133 fps=2.5 q=-0.0 size=    6971kB time=00:00:05.50 bitrate=10381.2kbits/s speed=0.102x    frame=  135 fps=2.5 q=-0.0 size=    7148kB time=00:00:05.58 bitrate=10486.5kbits/s speed=0.102x    frame=  137 fps=2.5 q=-0.0 size=    7322kB time=00:00:05.66 bitrate=10583.0kbits/s speed=0.102x    frame=  139 fps=2.5 q=-0.0 size=    7489kB time=00:00:05.75 bitrate=10667.2kbits/s speed=0.102x    frame=  141 fps=2.5 q=-0.0 size=    7489kB time=00:00:05.83 bitrate=10515.5kbits/s speed=0.103x    frame=  143 fps=2.5 q=-0.0 size=    7489kB time=00:00:05.91 bitrate=10366.2kbits/s speed=0.103x    frame=  145 fps=2.5 q=-0.0 size=    7489kB time=00:00:06.00 bitrate=10222.8kbits/s speed=0.103x    frame=  147 fps=2.5 q=-0.0 size=    7489kB time=00:00:06.08 bitrate=10083.4kbits/s speed=0.103x    frame=  149 fps=2.5 q=-0.0 size=    7489kB time=00:00:06.16 bitrate=9946.0kbits/s speed=0.104x    frame=  151 fps=2.5 q=-0.0 size=    8122kB time=00:00:06.25 bitrate=10643.4kbits/s speed=0.104x    frame=  154 fps=2.5 q=-0.0 size=    8122kB time=00:00:06.37 bitrate=10434.8kbits/s speed=0.105x    frame=  156 fps=2.5 q=-0.0 size=    8122kB time=00:00:06.45 bitrate=10300.7kbits/s speed=0.105x    frame=  158 fps=2.5 q=-0.0 size=    8365kB time=00:00:06.54 bitrate=10473.6kbits/s speed=0.105x    frame=  160 fps=2.5 q=-0.0 size=    8444kB time=00:00:06.62 bitrate=10439.8kbits/s speed=0.105x    frame=  162 fps=2.5 q=-0.0 size=    8565kB time=00:00:06.70 bitrate=10458.7kbits/s speed=0.106x    frame=  164 fps=2.5 q=-0.0 size=    8671kB time=00:00:06.79 bitrate=10456.8kbits/s speed=0.106x    frame=  166 fps=2.5 q=-0.0 size=    8779kB time=00:00:06.87 bitrate=10459.1kbits/s speed=0.106x    frame=  168 fps=2.5 q=-0.0 size=    8888kB time=00:00:06.95 bitrate=10462.3kbits/s speed=0.106x    frame=  170 fps=2.5 q=-0.0 size=    8996kB time=00:00:07.04 bitrate=10463.7kbits/s speed=0.106x    frame=  172 fps=2.5 q=-0.0 size=    9104kB time=00:00:07.12 bitrate=10465.4kbits/s speed=0.106x    frame=  174 fps=2.5 q=-0.0 size=    9209kB time=00:00:07.20 bitrate=10464.2kbits/s speed=0.106x    frame=  176 fps=2.5 q=-0.0 size=    9316kB time=00:00:07.29 bitrate=10464.4kbits/s speed=0.106x    frame=  178 fps=2.5 q=-0.0 size=    9415kB time=00:00:07.37 bitrate=10456.7kbits/s speed=0.106x    frame=  180 fps=2.5 q=-0.0 size=    9512kB time=00:00:07.45 bitrate=10446.7kbits/s speed=0.106x    frame=  182 fps=2.5 q=-0.0 size=    9611kB time=00:00:07.54 bitrate=10438.3kbits/s speed=0.106x    frame=  184 fps=2.5 q=-0.0 size=    9715kB time=00:00:07.62 bitrate=10435.7kbits/s speed=0.106x    frame=  186 fps=2.6 q=-0.0 size=    9715kB time=00:00:07.70 bitrate=10323.4kbits/s speed=0.106x    frame=  188 fps=2.6 q=-0.0 size=    9715kB time=00:00:07.79 bitrate=10212.1kbits/s speed=0.106x    frame=  190 fps=2.6 q=-0.0 size=    9715kB time=00:00:07.87 bitrate=10104.5kbits/s speed=0.106x    frame=  192 fps=2.6 q=-0.0 size=    9715kB time=00:00:07.95 bitrate=9999.1kbits/s speed=0.106x    frame=  194 fps=2.6 q=-0.0 size=   10217kB time=00:00:08.04 bitrate=10406.7kbits/s speed=0.107x    frame=  196 fps=2.6 q=-0.0 size=   10340kB time=00:00:08.12 bitrate=10423.9kbits/s speed=0.106x    frame=  198 fps=2.6 q=-0.0 size=   10464kB time=00:00:08.20 bitrate=10442.5kbits/s speed=0.106x    frame=  200 fps=2.6 q=-0.0 size=   10589kB time=00:00:08.29 bitrate=10460.3kbits/s speed=0.106x    frame=  202 fps=2.6 q=-0.0 size=   10730kB time=00:00:08.37 bitrate=10494.0kbits/s speed=0.106x    frame=  204 fps=2.6 q=-0.0 size=   10877kB time=00:00:08.45 bitrate=10533.4kbits/s speed=0.106x    frame=  206 fps=2.6 q=-0.0 size=   11021kB time=00:00:08.54 bitrate=10567.8kbits/s speed=0.106x    frame=  208 fps=2.6 q=-0.0 size=   11167kB time=00:00:08.62 bitrate=10605.1kbits/s speed=0.106x    frame=  210 fps=2.6 q=-0.0 size=   11317kB time=00:00:08.70 bitrate=10645.4kbits/s speed=0.106x    frame=  212 fps=2.6 q=-0.0 size=   11317kB time=00:00:08.79 bitrate=10543.7kbits/s speed=0.106x    frame=  214 fps=2.6 q=-0.0 size=   11317kB time=00:00:08.87 bitrate=10445.2kbits/s speed=0.106x    frame=  216 fps=2.6 q=-0.0 size=   11317kB time=00:00:08.95 bitrate=10348.4kbits/s speed=0.106x    frame=  218 fps=2.6 q=-0.0 size=   11317kB time=00:00:09.04 bitrate=10252.3kbits/s speed=0.106x    frame=  220 fps=2.6 q=-0.0 size=   11317kB time=00:00:09.12 bitrate=10159.0kbits/s speed=0.107x    frame=  222 fps=2.6 q=-0.0 size=   11931kB time=00:00:09.20 bitrate=10613.2kbits/s speed=0.107x    frame=  225 fps=2.6 q=-0.0 size=   11931kB time=00:00:09.33 bitrate=10471.1kbits/s speed=0.107x    frame=  227 fps=2.6 q=-0.0 size=   11931kB time=00:00:09.41 bitrate=10377.7kbits/s speed=0.107x    frame=  229 fps=2.6 q=-0.0 size=   11931kB time=00:00:09.50 bitrate=10287.0kbits/s speed=0.108x    frame=  231 fps=2.6 q=-0.0 size=   11931kB time=00:00:09.58 bitrate=10197.9kbits/s speed=0.108x    frame=  233 fps=2.6 q=-0.0 size=   11931kB time=00:00:09.66 bitrate=10109.3kbits/s speed=0.108x    frame=  236 fps=2.6 q=-0.0 size=   12372kB time=00:00:09.79 bitrate=10349.0kbits/s speed=0.109x    frame=  238 fps=2.6 q=-0.0 size=   12372kB time=00:00:09.87 bitrate=10262.0kbits/s speed=0.109x    frame=  240 fps=2.6 q=-0.0 size=   12372kB time=00:00:09.95 bitrate=10176.5kbits/s speed=0.109x    frame=  242 fps=2.6 q=-0.0 size=   12372kB time=00:00:10.04 bitrate=10091.4kbits/s speed=0.109x    frame=  244 fps=2.6 q=-0.0 size=   12372kB time=00:00:10.12 bitrate=10008.7kbits/s speed=0.109x    frame=  246 fps=2.6 q=-0.0 size=   13131kB time=00:00:10.20 bitrate=10536.9kbits/s speed=0.109x    frame=  249 fps=2.6 q=-0.0 size=   13131kB time=00:00:10.33 bitrate=10409.5kbits/s speed=0.109x    frame=  251 fps=2.6 q=-0.0 size=   13131kB time=00:00:10.41 bitrate=10325.5kbits/s speed=0.11x    frame=  253 fps=2.6 q=-0.0 size=   13131kB time=00:00:10.50 bitrate=10243.9kbits/s speed=0.11x    frame=  255 fps=2.6 q=-0.0 size=   13131kB time=00:00:10.58 bitrate=10163.6kbits/s speed=0.11x    frame=  257 fps=2.7 q=-0.0 size=   13131kB time=00:00:10.66 bitrate=10083.5kbits/s speed=0.11x    frame=  260 fps=2.7 q=-0.0 size=   13712kB time=00:00:10.79 bitrate=10407.4kbits/s speed=0.11x    frame=  262 fps=2.7 q=-0.0 size=   13712kB time=00:00:10.87 bitrate=10328.0kbits/s speed=0.111x    frame=  264 fps=2.7 q=-0.0 size=   13712kB time=00:00:10.95 bitrate=10249.8kbits/s speed=0.111x    frame=  266 fps=2.7 q=-0.0 size=   13970kB time=00:00:11.04 bitrate=10363.6kbits/s speed=0.111x    frame=  268 fps=2.7 q=-0.0 size=   13970kB time=00:00:11.12 bitrate=10286.3kbits/s speed=0.111x    frame=  270 fps=2.7 q=-0.0 size=   13970kB time=00:00:11.20 bitrate=10210.1kbits/s speed=0.111x    frame=  272 fps=2.7 q=-0.0 size=   13970kB time=00:00:11.29 bitrate=10134.2kbits/s speed=0.111x    frame=  274 fps=2.7 q=-0.0 size=   13970kB time=00:00:11.37 bitrate=10060.2kbits/s speed=0.111x    frame=  276 fps=2.7 q=-0.0 size=   13970kB time=00:00:11.45 bitrate=9987.4kbits/s speed=0.112x    frame=  278 fps=2.7 q=-0.0 size=   14381kB time=00:00:11.54 bitrate=10206.4kbits/s speed=0.112x    frame=  281 fps=2.7 q=-0.0 size=   14381kB time=00:00:11.66 bitrate=10097.0kbits/s speed=0.112x    frame=  283 fps=2.7 q=-0.0 size=   14381kB time=00:00:11.75 bitrate=10025.7kbits/s speed=0.112x    frame=  285 fps=2.7 q=-0.0 size=   14381kB time=00:00:11.83 bitrate=9955.4kbits/s speed=0.112x    frame=  287 fps=2.7 q=-0.0 size=   14381kB time=00:00:11.91 bitrate=9885.2kbits/s speed=0.112x    frame=  289 fps=2.7 q=-0.0 size=   14381kB time=00:00:12.00 bitrate=9816.9kbits/s speed=0.113x    frame=  292 fps=2.7 q=-0.0 size=   14986kB time=00:00:12.12 bitrate=10123.9kbits/s speed=0.113x    frame=  294 fps=2.7 q=-0.0 size=   14986kB time=00:00:12.20 bitrate=10055.1kbits/s speed=0.113x    frame=  296 fps=2.7 q=-0.0 size=   14986kB time=00:00:12.29 bitrate=9986.4kbits/s speed=0.113x    frame=  298 fps=2.7 q=-0.0 size=   14986kB time=00:00:12.37 bitrate=9919.4kbits/s speed=0.113x    frame=  300 fps=2.7 q=-0.0 size=   14986kB time=00:00:12.45 bitrate=9853.3kbits/s speed=0.113x    frame=  302 fps=2.7 q=-0.0 size=   15507kB time=00:00:12.54 bitrate=10127.7kbits/s speed=0.113x    frame=  304 fps=2.7 q=-0.0 size=   15507kB time=00:00:12.62 bitrate=10061.1kbits/s speed=0.113x    frame=  306 fps=2.7 q=-0.0 size=   15507kB time=00:00:12.70 bitrate=9995.4kbits/s speed=0.113x    frame=  308 fps=2.7 q=-0.0 size=   15507kB time=00:00:12.79 bitrate=9929.7kbits/s speed=0.114x    frame=  310 fps=2.7 q=-0.0 size=   15507kB time=00:00:12.87 bitrate=9865.7kbits/s speed=0.113x    frame=  312 fps=2.7 q=-0.0 size=   15507kB time=00:00:12.95 bitrate=9802.5kbits/s speed=0.113x    frame=  314 fps=2.7 q=-0.0 size=   16062kB time=00:00:13.04 bitrate=10088.4kbits/s speed=0.114x    frame=  316 fps=2.7 q=-0.0 size=   16062kB time=00:00:13.12 bitrate=10024.6kbits/s speed=0.114x    frame=  318 fps=2.7 q=-0.0 size=   16062kB time=00:00:13.20 bitrate=9961.6kbits/s speed=0.114x    frame=  320 fps=2.7 q=-0.0 size=   16062kB time=00:00:13.29 bitrate=9898.7kbits/s speed=0.114x    frame=  322 fps=2.7 q=-0.0 size=   16062kB time=00:00:13.37 bitrate=9837.3kbits/s speed=0.114x    frame=  324 fps=2.7 q=-0.0 size=   16062kB time=00:00:13.45 bitrate=9776.6kbits/s speed=0.114x    frame=  326 fps=2.7 q=-0.0 size=   16699kB time=00:00:13.54 bitrate=10101.3kbits/s speed=0.114x    frame=  328 fps=2.7 q=-0.0 size=   16699kB time=00:00:13.62 bitrate=10039.7kbits/s speed=0.114x    frame=  330 fps=2.7 q=-0.0 size=   16699kB time=00:00:13.70 bitrate=9979.0kbits/s speed=0.114x    frame=  332 fps=2.7 q=-0.0 size=   16699kB time=00:00:13.79 bitrate=9918.2kbits/s speed=0.114x    frame=  334 fps=2.7 q=-0.0 size=   16699kB time=00:00:13.87 bitrate=9858.9kbits/s speed=0.114x    frame=  336 fps=2.7 q=-0.0 size=   16699kB time=00:00:13.95 bitrate=9800.2kbits/s speed=0.114x    frame=  338 fps=2.7 q=-0.0 size=   17310kB time=00:00:14.04 bitrate=10097.9kbits/s speed=0.114x    frame=  340 fps=2.8 q=-0.0 size=   17310kB time=00:00:14.12 bitrate=10038.6kbits/s speed=0.114x    frame=  342 fps=2.8 q=-0.0 size=   17310kB time=00:00:14.20 bitrate=9979.9kbits/s speed=0.114x    frame=  344 fps=2.8 q=-0.0 size=   17310kB time=00:00:14.29 bitrate=9921.3kbits/s speed=0.114x    frame=  346 fps=2.8 q=-0.0 size=   17310kB time=00:00:14.37 bitrate=9864.0kbits/s speed=0.114x    frame=  348 fps=2.8 q=-0.0 size=   17310kB time=00:00:14.45 bitrate=9807.4kbits/s speed=0.114x    frame=  350 fps=2.8 q=-0.0 size=   17897kB time=00:00:14.54 bitrate=10081.0kbits/s speed=0.114x    frame=  352 fps=2.8 q=-0.0 size=   17897kB time=00:00:14.62 bitrate=10023.8kbits/s speed=0.114x    frame=  354 fps=2.8 q=-0.0 size=   17897kB time=00:00:14.70 bitrate=9967.2kbits/s speed=0.114x    frame=  356 fps=2.8 q=-0.0 size=   17897kB time=00:00:14.79 bitrate=9910.7kbits/s speed=0.114x    frame=  358 fps=2.8 q=-0.0 size=   17897kB time=00:00:14.87 bitrate=9855.4kbits/s speed=0.115x    frame=  360 fps=2.8 q=-0.0 size=   17897kB time=00:00:14.95 bitrate=9800.7kbits/s speed=0.115x    frame=  362 fps=2.8 q=-0.0 size=   18538kB time=00:00:15.04 bitrate=10095.2kbits/s speed=0.115x    frame=  364 fps=2.8 q=-0.0 size=   18762kB time=00:00:15.12 bitrate=10161.4kbits/s speed=0.115x    frame=  366 fps=2.8 q=-0.0 size=   18762kB time=00:00:15.20 bitrate=10106.0kbits/s speed=0.115x    frame=  368 fps=2.8 q=-0.0 size=   18762kB time=00:00:15.29 bitrate=10050.5kbits/s speed=0.115x    frame=  370 fps=2.8 q=-0.0 size=   18762kB time=00:00:15.37 bitrate=9996.2kbits/s speed=0.115x    frame=  372 fps=2.8 q=-0.0 size=   18762kB time=00:00:15.45 bitrate=9942.5kbits/s speed=0.115x    frame=  374 fps=2.8 q=-0.0 size=   18762kB time=00:00:15.54 bitrate=9888.8kbits/s speed=0.115x    frame=  376 fps=2.8 q=-0.0 size=   19360kB time=00:00:15.62 bitrate=10149.8kbits/s speed=0.115x    frame=  378 fps=2.8 q=-0.0 size=   19360kB time=00:00:15.70 bitrate=10096.2kbits/s speed=0.115x    frame=  380 fps=2.8 q=-0.0 size=   19360kB time=00:00:15.79 bitrate=10042.5kbits/s speed=0.115x    frame=  382 fps=2.8 q=-0.0 size=   19360kB time=00:00:15.87 bitrate=9990.0kbits/s speed=0.115x    frame=  384 fps=2.8 q=-0.0 size=   19360kB time=00:00:15.95 bitrate=9938.0kbits/s speed=0.115x    frame=  386 fps=2.8 q=-0.0 size=   19360kB time=00:00:16.04 bitrate=9886.0kbits/s speed=0.115x    frame=  388 fps=2.8 q=-0.0 size=   19897kB time=00:00:16.12 bitrate=10107.4kbits/s speed=0.115x    frame=  390 fps=2.8 q=-0.0 size=   19897kB time=00:00:16.20 bitrate=10055.7kbits/s speed=0.115x    frame=  392 fps=2.8 q=-0.0 size=   19897kB time=00:00:16.29 bitrate=10003.8kbits/s speed=0.115x    frame=  394 fps=2.8 q=-0.0 size=   19897kB time=00:00:16.37 bitrate=9953.1kbits/s speed=0.115x    frame=  396 fps=2.8 q=-0.0 size=   19897kB time=00:00:16.45 bitrate=9902.9kbits/s speed=0.115x    frame=  398 fps=2.8 q=-0.0 size=   19897kB time=00:00:16.54 bitrate=9852.7kbits/s speed=0.115x    frame=  401 fps=2.8 q=-0.0 size=   20776kB time=00:00:16.66 bitrate=10211.0kbits/s speed=0.115x    frame=  403 fps=2.8 q=-0.0 size=   20776kB time=00:00:16.75 bitrate=10160.4kbits/s speed=0.115x    frame=  405 fps=2.8 q=-0.0 size=   20776kB time=00:00:16.83 bitrate=10110.3kbits/s speed=0.116x    frame=  407 fps=2.8 q=-0.0 size=   20776kB time=00:00:16.91 bitrate=10060.1kbits/s speed=0.116x    frame=  409 fps=2.8 q=-0.0 size=   20776kB time=00:00:17.00 bitrate=10011.0kbits/s speed=0.116x    frame=  411 fps=2.8 q=-0.0 size=   21302kB time=00:00:17.08 bitrate=10214.7kbits/s speed=0.116x    frame=  414 fps=2.8 q=-0.0 size=   21302kB time=00:00:17.20 bitrate=10140.5kbits/s speed=0.116x    frame=  416 fps=2.8 q=-0.0 size=   21302kB time=00:00:17.29 bitrate=10091.2kbits/s speed=0.116x    frame=  418 fps=2.8 q=-0.0 size=   21302kB time=00:00:17.37 bitrate=10043.0kbits/s speed=0.116x    frame=  420 fps=2.8 q=-0.0 size=   21622kB time=00:00:17.45 bitrate=10145.2kbits/s speed=0.116x    frame=  422 fps=2.8 q=-0.0 size=   21622kB time=00:00:17.54 bitrate=10096.6kbits/s speed=0.116x    frame=  424 fps=2.8 q=-0.0 size=   21622kB time=00:00:17.62 bitrate=10049.1kbits/s speed=0.116x    frame=  426 fps=2.8 q=-0.0 size=   21622kB time=00:00:17.70 bitrate=10002.0kbits/s speed=0.116x    frame=  428 fps=2.8 q=-0.0 size=   21622kB time=00:00:17.79 bitrate=9954.7kbits/s speed=0.116x    frame=  430 fps=2.8 q=-0.0 size=   21622kB time=00:00:17.87 bitrate=9908.5kbits/s speed=0.116x    frame=  433 fps=2.8 q=-0.0 size=   22401kB time=00:00:18.00 bitrate=10194.4kbits/s speed=0.116x    frame=  435 fps=2.8 q=-0.0 size=   22401kB time=00:00:18.08 bitrate=10147.7kbits/s speed=0.116x    frame=  437 fps=2.8 q=-0.0 size=   22401kB time=00:00:18.16 bitrate=10100.7kbits/s speed=0.116x    frame=  439 fps=2.8 q=-0.0 size=   22401kB time=00:00:18.25 bitrate=10054.8kbits/s speed=0.117x    frame=  441 fps=2.8 q=-0.0 size=   22401kB time=00:00:18.33 bitrate=10009.3kbits/s speed=0.117x    frame=  443 fps=2.8 q=-0.0 size=   22819kB time=00:00:18.41 bitrate=10149.5kbits/s speed=0.117x    frame=  445 fps=2.8 q=-0.0 size=   22819kB time=00:00:18.50 bitrate=10104.0kbits/s speed=0.117x    frame=  447 fps=2.8 q=-0.0 size=   22819kB time=00:00:18.58 bitrate=10058.9kbits/s speed=0.117x    frame=  449 fps=2.8 q=-0.0 size=   22819kB time=00:00:18.66 bitrate=10013.6kbits/s speed=0.117x    frame=  451 fps=2.8 q=-0.0 size=   22819kB time=00:00:18.75 bitrate=9969.3kbits/s speed=0.117x    frame=  453 fps=2.8 q=-0.0 size=   22819kB time=00:00:18.83 bitrate=9925.3kbits/s speed=0.117x    frame=  455 fps=2.8 q=-0.0 size=   23439kB time=00:00:18.91 bitrate=10149.7kbits/s speed=0.117x    frame=  457 fps=2.8 q=-0.0 size=   23439kB time=00:00:19.00 bitrate=10105.4kbits/s speed=0.117x    frame=  459 fps=2.8 q=-0.0 size=   23439kB time=00:00:19.08 bitrate=10061.4kbits/s speed=0.117x    frame=  461 fps=2.8 q=-0.0 size=   23439kB time=00:00:19.16 bitrate=10017.4kbits/s speed=0.117x    frame=  463 fps=2.8 q=-0.0 size=   23439kB time=00:00:19.25 bitrate=9974.2kbits/s speed=0.117x    frame=  465 fps=2.8 q=-0.0 size=   23439kB time=00:00:19.33 bitrate=9931.3kbits/s speed=0.117x    frame=  467 fps=2.8 q=-0.0 size=   24026kB time=00:00:19.41 bitrate=10135.9kbits/s speed=0.117x    frame=  469 fps=2.8 q=-0.0 size=   24026kB time=00:00:19.50 bitrate=10092.8kbits/s speed=0.117x    frame=  471 fps=2.8 q=-0.0 size=   24026kB time=00:00:19.58 bitrate=10050.0kbits/s speed=0.117x    frame=  473 fps=2.8 q=-0.0 size=   24026kB time=00:00:19.66 bitrate=10007.1kbits/s speed=0.117x    frame=  475 fps=2.8 q=-0.0 size=   24026kB time=00:00:19.75 bitrate=9965.0kbits/s speed=0.117x    frame=  477 fps=2.8 q=-0.0 size=   24026kB time=00:00:19.83 bitrate=9923.3kbits/s speed=0.117x    frame=  479 fps=2.8 q=-0.0 size=   24598kB time=00:00:19.91 bitrate=10116.9kbits/s speed=0.117x    frame=  482 fps=2.8 q=-0.0 size=   24598kB time=00:00:20.04 bitrate=10053.8kbits/s speed=0.118x    frame=  484 fps=2.8 q=-0.0 size=   24598kB time=00:00:20.12 bitrate=10012.4kbits/s speed=0.118x    frame=  486 fps=2.8 q=-0.0 size=   24598kB time=00:00:20.20 bitrate=9971.3kbits/s speed=0.118x    frame=  488 fps=2.8 q=-0.0 size=   24598kB time=00:00:20.29 bitrate=9930.0kbits/s speed=0.118x    frame=  490 fps=2.8 q=-0.0 size=   24598kB time=00:00:20.37 bitrate=9889.5kbits/s speed=0.118x    frame=  492 fps=2.8 q=-0.0 size=   25149kB time=00:00:20.45 bitrate=10070.0kbits/s speed=0.118x    frame=  494 fps=2.8 q=-0.0 size=   25149kB time=00:00:20.54 bitrate=10028.8kbits/s speed=0.118x    frame=  496 fps=2.8 q=-0.0 size=   25149kB time=00:00:20.62 bitrate=9988.5kbits/s speed=0.118x    frame=  498 fps=2.8 q=-0.0 size=   25149kB time=00:00:20.70 bitrate=9948.4kbits/s speed=0.118x    frame=  500 fps=2.8 q=-0.0 size=   25149kB time=00:00:20.79 bitrate=9908.2kbits/s speed=0.118x    frame=  500 fps=2.8 q=-0.0 Lsize=   25715kB time=00:00:20.79 bitrate=10131.3kbits/s speed=0.118x    
video:25703kB audio:0kB subtitle:0kB other streams:0kB global headers:3kB muxing overhead: 0.049294%
bench: utime=155.404s
bench: maxrss=237332kB
